# xmcd CD database file
#
# Track frame offsets:
#	187
#	18307
#	34712
#	56709
#	84124
#	106522
#	121869
#	142632
#	167724
#
# Disc length: 2492 seconds
#
# Revision: 1
# Processed by: cddbd v1.5PL3 Copyright (c) Steve Scherf et al.
# Submitted via: CDex 1.51
#
DISCID=5b09ba09
DTITLE=Jeff Watson - Around The Sun
DYEAR=1993
DGENRE=Instrumental Rock
TTITLE0=Glass Revenge
TTITLE1=Life Goes On
TTITLE2=Around The Sun
TTITLE3=Follow
TTITLE4=Anna Waits
TTITLE5=Tightrope
TTITLE6=Leslie Ann
TTITLE7=Man's Best Friend
TTITLE8=Moment Of Truth
EXTD=YEAR: 1993
EXTT0=
EXTT1=
EXTT2=
EXTT3=
EXTT4=
EXTT5=
EXTT6=
EXTT7=
EXTT8=
PLAYORDER=
